<svg xmlns="http://www.w3.org/2000/svg" viewBox="0 0 512 512" role="img" aria-label="Tienda Pino — Náutico Escobar Country Club">
  <defs>
    <clipPath id="treeClip"><path d="M256 46 Q272 46 282 62 L452 332 Q462 350 442 354 L300 354 L300 452 Q300 468 284 468 L228 468 Q212 468 212 452 L212 354 L70 354 Q50 350 60 332 L230 62 Q240 46 256 46 Z"/></clipPath>
  </defs>
  <g clip-path="url(#treeClip)">
    <rect x="0" y="0" width="512" height="512" fill="#2e9d4f"/>
    <path d="M -30.0,26.2 L -20.0,28.7 L -10.0,31.4 L 0.0,34.0 L 10.0,35.9 L 20.0,36.9 L 30.0,36.9 L 40.0,35.8 L 50.0,33.8 L 60.0,31.3 L 70.0,28.6 L 80.0,26.0 L 90.0,24.1 L 100.0,23.1 L 110.0,23.1 L 120.0,24.2 L 130.0,26.2 L 140.0,28.7 L 150.0,31.4 L 160.0,34.0 L 170.0,35.9 L 180.0,36.9 L 190.0,36.9 L 200.0,35.8 L 210.0,33.8 L 220.0,31.3 L 230.0,28.6 L 240.0,26.0 L 250.0,24.1 L 260.0,23.1 L 270.0,23.1 L 280.0,24.2 L 290.0,26.2 L 300.0,28.7 L 310.0,31.4 L 320.0,34.0 L 330.0,35.9 L 340.0,36.9 L 350.0,36.9 L 360.0,35.8 L 370.0,33.8 L 380.0,31.3 L 390.0,28.6 L 400.0,26.0 L 410.0,24.1 L 420.0,23.1 L 430.0,23.1 L 440.0,24.2 L 450.0,26.2 L 460.0,28.7 L 470.0,31.4 L 480.0,34.0 L 490.0,35.9 L 500.0,36.9 L 510.0,36.9 L 520.0,35.8 L 530.0,33.8 L 540.0,31.3 L 542.0,60.7 L 532.0,63.4 L 522.0,65.4 L 512.0,66.7 L 502.0,67.0 L 492.0,66.1 L 482.0,64.4 L 472.0,62.0 L 462.0,59.3 L 452.0,56.6 L 442.0,54.6 L 432.0,53.3 L 422.0,53.0 L 412.0,53.9 L 402.0,55.6 L 392.0,58.0 L 382.0,60.7 L 372.0,63.4 L 362.0,65.4 L 352.0,66.7 L 342.0,67.0 L 332.0,66.1 L 322.0,64.4 L 312.0,62.0 L 302.0,59.3 L 292.0,56.6 L 282.0,54.6 L 272.0,53.3 L 262.0,53.0 L 252.0,53.9 L 242.0,55.6 L 232.0,58.0 L 222.0,60.7 L 212.0,63.4 L 202.0,65.4 L 192.0,66.7 L 182.0,67.0 L 172.0,66.1 L 162.0,64.4 L 152.0,62.0 L 142.0,59.3 L 132.0,56.6 L 122.0,54.6 L 112.0,53.3 L 102.0,53.0 L 92.0,53.9 L 82.0,55.6 L 72.0,58.0 L 62.0,60.7 L 52.0,63.4 L 42.0,65.4 L 32.0,66.7 L 22.0,67.0 L 12.0,66.1 L 2.0,64.4 L -8.0,62.0 L -18.0,59.3 L -28.0,56.6 Z" fill="#1b2a6b"/><path d="M -30.0,56.2 L -20.0,58.7 L -10.0,61.4 L 0.0,64.0 L 10.0,65.9 L 20.0,66.9 L 30.0,66.9 L 40.0,65.8 L 50.0,63.8 L 60.0,61.3 L 70.0,58.6 L 80.0,56.0 L 90.0,54.1 L 100.0,53.1 L 110.0,53.1 L 120.0,54.2 L 130.0,56.2 L 140.0,58.7 L 150.0,61.4 L 160.0,64.0 L 170.0,65.9 L 180.0,66.9 L 190.0,66.9 L 200.0,65.8 L 210.0,63.8 L 220.0,61.3 L 230.0,58.6 L 240.0,56.0 L 250.0,54.1 L 260.0,53.1 L 270.0,53.1 L 280.0,54.2 L 290.0,56.2 L 300.0,58.7 L 310.0,61.4 L 320.0,64.0 L 330.0,65.9 L 340.0,66.9 L 350.0,66.9 L 360.0,65.8 L 370.0,63.8 L 380.0,61.3 L 390.0,58.6 L 400.0,56.0 L 410.0,54.1 L 420.0,53.1 L 430.0,53.1 L 440.0,54.2 L 450.0,56.2 L 460.0,58.7 L 470.0,61.4 L 480.0,64.0 L 490.0,65.9 L 500.0,66.9 L 510.0,66.9 L 520.0,65.8 L 530.0,63.8 L 540.0,61.3 L 542.0,90.7 L 532.0,93.4 L 522.0,95.4 L 512.0,96.7 L 502.0,97.0 L 492.0,96.1 L 482.0,94.4 L 472.0,92.0 L 462.0,89.3 L 452.0,86.6 L 442.0,84.6 L 432.0,83.3 L 422.0,83.0 L 412.0,83.9 L 402.0,85.6 L 392.0,88.0 L 382.0,90.7 L 372.0,93.4 L 362.0,95.4 L 352.0,96.7 L 342.0,97.0 L 332.0,96.1 L 322.0,94.4 L 312.0,92.0 L 302.0,89.3 L 292.0,86.6 L 282.0,84.6 L 272.0,83.3 L 262.0,83.0 L 252.0,83.9 L 242.0,85.6 L 232.0,88.0 L 222.0,90.7 L 212.0,93.4 L 202.0,95.4 L 192.0,96.7 L 182.0,97.0 L 172.0,96.1 L 162.0,94.4 L 152.0,92.0 L 142.0,89.3 L 132.0,86.6 L 122.0,84.6 L 112.0,83.3 L 102.0,83.0 L 92.0,83.9 L 82.0,85.6 L 72.0,88.0 L 62.0,90.7 L 52.0,93.4 L 42.0,95.4 L 32.0,96.7 L 22.0,97.0 L 12.0,96.1 L 2.0,94.4 L -8.0,92.0 L -18.0,89.3 L -28.0,86.6 Z" fill="#2e9d4f"/><path d="M -30.0,86.2 L -20.0,88.7 L -10.0,91.4 L 0.0,94.0 L 10.0,95.9 L 20.0,96.9 L 30.0,96.9 L 40.0,95.8 L 50.0,93.8 L 60.0,91.3 L 70.0,88.6 L 80.0,86.0 L 90.0,84.1 L 100.0,83.1 L 110.0,83.1 L 120.0,84.2 L 130.0,86.2 L 140.0,88.7 L 150.0,91.4 L 160.0,94.0 L 170.0,95.9 L 180.0,96.9 L 190.0,96.9 L 200.0,95.8 L 210.0,93.8 L 220.0,91.3 L 230.0,88.6 L 240.0,86.0 L 250.0,84.1 L 260.0,83.1 L 270.0,83.1 L 280.0,84.2 L 290.0,86.2 L 300.0,88.7 L 310.0,91.4 L 320.0,94.0 L 330.0,95.9 L 340.0,96.9 L 350.0,96.9 L 360.0,95.8 L 370.0,93.8 L 380.0,91.3 L 390.0,88.6 L 400.0,86.0 L 410.0,84.1 L 420.0,83.1 L 430.0,83.1 L 440.0,84.2 L 450.0,86.2 L 460.0,88.7 L 470.0,91.4 L 480.0,94.0 L 490.0,95.9 L 500.0,96.9 L 510.0,96.9 L 520.0,95.8 L 530.0,93.8 L 540.0,91.3 L 542.0,120.7 L 532.0,123.4 L 522.0,125.4 L 512.0,126.7 L 502.0,127.0 L 492.0,126.1 L 482.0,124.4 L 472.0,122.0 L 462.0,119.3 L 452.0,116.6 L 442.0,114.6 L 432.0,113.3 L 422.0,113.0 L 412.0,113.9 L 402.0,115.6 L 392.0,118.0 L 382.0,120.7 L 372.0,123.4 L 362.0,125.4 L 352.0,126.7 L 342.0,127.0 L 332.0,126.1 L 322.0,124.4 L 312.0,122.0 L 302.0,119.3 L 292.0,116.6 L 282.0,114.6 L 272.0,113.3 L 262.0,113.0 L 252.0,113.9 L 242.0,115.6 L 232.0,118.0 L 222.0,120.7 L 212.0,123.4 L 202.0,125.4 L 192.0,126.7 L 182.0,127.0 L 172.0,126.1 L 162.0,124.4 L 152.0,122.0 L 142.0,119.3 L 132.0,116.6 L 122.0,114.6 L 112.0,113.3 L 102.0,113.0 L 92.0,113.9 L 82.0,115.6 L 72.0,118.0 L 62.0,120.7 L 52.0,123.4 L 42.0,125.4 L 32.0,126.7 L 22.0,127.0 L 12.0,126.1 L 2.0,124.4 L -8.0,122.0 L -18.0,119.3 L -28.0,116.6 Z" fill="#1b2a6b"/><path d="M -30.0,116.2 L -20.0,118.7 L -10.0,121.4 L 0.0,124.0 L 10.0,125.9 L 20.0,126.9 L 30.0,126.9 L 40.0,125.8 L 50.0,123.8 L 60.0,121.3 L 70.0,118.6 L 80.0,116.0 L 90.0,114.1 L 100.0,113.1 L 110.0,113.1 L 120.0,114.2 L 130.0,116.2 L 140.0,118.7 L 150.0,121.4 L 160.0,124.0 L 170.0,125.9 L 180.0,126.9 L 190.0,126.9 L 200.0,125.8 L 210.0,123.8 L 220.0,121.3 L 230.0,118.6 L 240.0,116.0 L 250.0,114.1 L 260.0,113.1 L 270.0,113.1 L 280.0,114.2 L 290.0,116.2 L 300.0,118.7 L 310.0,121.4 L 320.0,124.0 L 330.0,125.9 L 340.0,126.9 L 350.0,126.9 L 360.0,125.8 L 370.0,123.8 L 380.0,121.3 L 390.0,118.6 L 400.0,116.0 L 410.0,114.1 L 420.0,113.1 L 430.0,113.1 L 440.0,114.2 L 450.0,116.2 L 460.0,118.7 L 470.0,121.4 L 480.0,124.0 L 490.0,125.9 L 500.0,126.9 L 510.0,126.9 L 520.0,125.8 L 530.0,123.8 L 540.0,121.3 L 542.0,150.7 L 532.0,153.4 L 522.0,155.4 L 512.0,156.7 L 502.0,157.0 L 492.0,156.1 L 482.0,154.4 L 472.0,152.0 L 462.0,149.3 L 452.0,146.6 L 442.0,144.6 L 432.0,143.3 L 422.0,143.0 L 412.0,143.9 L 402.0,145.6 L 392.0,148.0 L 382.0,150.7 L 372.0,153.4 L 362.0,155.4 L 352.0,156.7 L 342.0,157.0 L 332.0,156.1 L 322.0,154.4 L 312.0,152.0 L 302.0,149.3 L 292.0,146.6 L 282.0,144.6 L 272.0,143.3 L 262.0,143.0 L 252.0,143.9 L 242.0,145.6 L 232.0,148.0 L 222.0,150.7 L 212.0,153.4 L 202.0,155.4 L 192.0,156.7 L 182.0,157.0 L 172.0,156.1 L 162.0,154.4 L 152.0,152.0 L 142.0,149.3 L 132.0,146.6 L 122.0,144.6 L 112.0,143.3 L 102.0,143.0 L 92.0,143.9 L 82.0,145.6 L 72.0,148.0 L 62.0,150.7 L 52.0,153.4 L 42.0,155.4 L 32.0,156.7 L 22.0,157.0 L 12.0,156.1 L 2.0,154.4 L -8.0,152.0 L -18.0,149.3 L -28.0,146.6 Z" fill="#2e9d4f"/><path d="M -30.0,146.2 L -20.0,148.7 L -10.0,151.4 L 0.0,154.0 L 10.0,155.9 L 20.0,156.9 L 30.0,156.9 L 40.0,155.8 L 50.0,153.8 L 60.0,151.3 L 70.0,148.6 L 80.0,146.0 L 90.0,144.1 L 100.0,143.1 L 110.0,143.1 L 120.0,144.2 L 130.0,146.2 L 140.0,148.7 L 150.0,151.4 L 160.0,154.0 L 170.0,155.9 L 180.0,156.9 L 190.0,156.9 L 200.0,155.8 L 210.0,153.8 L 220.0,151.3 L 230.0,148.6 L 240.0,146.0 L 250.0,144.1 L 260.0,143.1 L 270.0,143.1 L 280.0,144.2 L 290.0,146.2 L 300.0,148.7 L 310.0,151.4 L 320.0,154.0 L 330.0,155.9 L 340.0,156.9 L 350.0,156.9 L 360.0,155.8 L 370.0,153.8 L 380.0,151.3 L 390.0,148.6 L 400.0,146.0 L 410.0,144.1 L 420.0,143.1 L 430.0,143.1 L 440.0,144.2 L 450.0,146.2 L 460.0,148.7 L 470.0,151.4 L 480.0,154.0 L 490.0,155.9 L 500.0,156.9 L 510.0,156.9 L 520.0,155.8 L 530.0,153.8 L 540.0,151.3 L 542.0,180.7 L 532.0,183.4 L 522.0,185.4 L 512.0,186.7 L 502.0,187.0 L 492.0,186.1 L 482.0,184.4 L 472.0,182.0 L 462.0,179.3 L 452.0,176.6 L 442.0,174.6 L 432.0,173.3 L 422.0,173.0 L 412.0,173.9 L 402.0,175.6 L 392.0,178.0 L 382.0,180.7 L 372.0,183.4 L 362.0,185.4 L 352.0,186.7 L 342.0,187.0 L 332.0,186.1 L 322.0,184.4 L 312.0,182.0 L 302.0,179.3 L 292.0,176.6 L 282.0,174.6 L 272.0,173.3 L 262.0,173.0 L 252.0,173.9 L 242.0,175.6 L 232.0,178.0 L 222.0,180.7 L 212.0,183.4 L 202.0,185.4 L 192.0,186.7 L 182.0,187.0 L 172.0,186.1 L 162.0,184.4 L 152.0,182.0 L 142.0,179.3 L 132.0,176.6 L 122.0,174.6 L 112.0,173.3 L 102.0,173.0 L 92.0,173.9 L 82.0,175.6 L 72.0,178.0 L 62.0,180.7 L 52.0,183.4 L 42.0,185.4 L 32.0,186.7 L 22.0,187.0 L 12.0,186.1 L 2.0,184.4 L -8.0,182.0 L -18.0,179.3 L -28.0,176.6 Z" fill="#1b2a6b"/><path d="M -30.0,176.2 L -20.0,178.7 L -10.0,181.4 L 0.0,184.0 L 10.0,185.9 L 20.0,186.9 L 30.0,186.9 L 40.0,185.8 L 50.0,183.8 L 60.0,181.3 L 70.0,178.6 L 80.0,176.0 L 90.0,174.1 L 100.0,173.1 L 110.0,173.1 L 120.0,174.2 L 130.0,176.2 L 140.0,178.7 L 150.0,181.4 L 160.0,184.0 L 170.0,185.9 L 180.0,186.9 L 190.0,186.9 L 200.0,185.8 L 210.0,183.8 L 220.0,181.3 L 230.0,178.6 L 240.0,176.0 L 250.0,174.1 L 260.0,173.1 L 270.0,173.1 L 280.0,174.2 L 290.0,176.2 L 300.0,178.7 L 310.0,181.4 L 320.0,184.0 L 330.0,185.9 L 340.0,186.9 L 350.0,186.9 L 360.0,185.8 L 370.0,183.8 L 380.0,181.3 L 390.0,178.6 L 400.0,176.0 L 410.0,174.1 L 420.0,173.1 L 430.0,173.1 L 440.0,174.2 L 450.0,176.2 L 460.0,178.7 L 470.0,181.4 L 480.0,184.0 L 490.0,185.9 L 500.0,186.9 L 510.0,186.9 L 520.0,185.8 L 530.0,183.8 L 540.0,181.3 L 542.0,210.7 L 532.0,213.4 L 522.0,215.4 L 512.0,216.7 L 502.0,217.0 L 492.0,216.1 L 482.0,214.4 L 472.0,212.0 L 462.0,209.3 L 452.0,206.6 L 442.0,204.6 L 432.0,203.3 L 422.0,203.0 L 412.0,203.9 L 402.0,205.6 L 392.0,208.0 L 382.0,210.7 L 372.0,213.4 L 362.0,215.4 L 352.0,216.7 L 342.0,217.0 L 332.0,216.1 L 322.0,214.4 L 312.0,212.0 L 302.0,209.3 L 292.0,206.6 L 282.0,204.6 L 272.0,203.3 L 262.0,203.0 L 252.0,203.9 L 242.0,205.6 L 232.0,208.0 L 222.0,210.7 L 212.0,213.4 L 202.0,215.4 L 192.0,216.7 L 182.0,217.0 L 172.0,216.1 L 162.0,214.4 L 152.0,212.0 L 142.0,209.3 L 132.0,206.6 L 122.0,204.6 L 112.0,203.3 L 102.0,203.0 L 92.0,203.9 L 82.0,205.6 L 72.0,208.0 L 62.0,210.7 L 52.0,213.4 L 42.0,215.4 L 32.0,216.7 L 22.0,217.0 L 12.0,216.1 L 2.0,214.4 L -8.0,212.0 L -18.0,209.3 L -28.0,206.6 Z" fill="#2e9d4f"/><path d="M -30.0,206.2 L -20.0,208.7 L -10.0,211.4 L 0.0,214.0 L 10.0,215.9 L 20.0,216.9 L 30.0,216.9 L 40.0,215.8 L 50.0,213.8 L 60.0,211.3 L 70.0,208.6 L 80.0,206.0 L 90.0,204.1 L 100.0,203.1 L 110.0,203.1 L 120.0,204.2 L 130.0,206.2 L 140.0,208.7 L 150.0,211.4 L 160.0,214.0 L 170.0,215.9 L 180.0,216.9 L 190.0,216.9 L 200.0,215.8 L 210.0,213.8 L 220.0,211.3 L 230.0,208.6 L 240.0,206.0 L 250.0,204.1 L 260.0,203.1 L 270.0,203.1 L 280.0,204.2 L 290.0,206.2 L 300.0,208.7 L 310.0,211.4 L 320.0,214.0 L 330.0,215.9 L 340.0,216.9 L 350.0,216.9 L 360.0,215.8 L 370.0,213.8 L 380.0,211.3 L 390.0,208.6 L 400.0,206.0 L 410.0,204.1 L 420.0,203.1 L 430.0,203.1 L 440.0,204.2 L 450.0,206.2 L 460.0,208.7 L 470.0,211.4 L 480.0,214.0 L 490.0,215.9 L 500.0,216.9 L 510.0,216.9 L 520.0,215.8 L 530.0,213.8 L 540.0,211.3 L 542.0,240.7 L 532.0,243.4 L 522.0,245.4 L 512.0,246.7 L 502.0,247.0 L 492.0,246.1 L 482.0,244.4 L 472.0,242.0 L 462.0,239.3 L 452.0,236.6 L 442.0,234.6 L 432.0,233.3 L 422.0,233.0 L 412.0,233.9 L 402.0,235.6 L 392.0,238.0 L 382.0,240.7 L 372.0,243.4 L 362.0,245.4 L 352.0,246.7 L 342.0,247.0 L 332.0,246.1 L 322.0,244.4 L 312.0,242.0 L 302.0,239.3 L 292.0,236.6 L 282.0,234.6 L 272.0,233.3 L 262.0,233.0 L 252.0,233.9 L 242.0,235.6 L 232.0,238.0 L 222.0,240.7 L 212.0,243.4 L 202.0,245.4 L 192.0,246.7 L 182.0,247.0 L 172.0,246.1 L 162.0,244.4 L 152.0,242.0 L 142.0,239.3 L 132.0,236.6 L 122.0,234.6 L 112.0,233.3 L 102.0,233.0 L 92.0,233.9 L 82.0,235.6 L 72.0,238.0 L 62.0,240.7 L 52.0,243.4 L 42.0,245.4 L 32.0,246.7 L 22.0,247.0 L 12.0,246.1 L 2.0,244.4 L -8.0,242.0 L -18.0,239.3 L -28.0,236.6 Z" fill="#1b2a6b"/><path d="M -30.0,236.2 L -20.0,238.7 L -10.0,241.4 L 0.0,244.0 L 10.0,245.9 L 20.0,246.9 L 30.0,246.9 L 40.0,245.8 L 50.0,243.8 L 60.0,241.3 L 70.0,238.6 L 80.0,236.0 L 90.0,234.1 L 100.0,233.1 L 110.0,233.1 L 120.0,234.2 L 130.0,236.2 L 140.0,238.7 L 150.0,241.4 L 160.0,244.0 L 170.0,245.9 L 180.0,246.9 L 190.0,246.9 L 200.0,245.8 L 210.0,243.8 L 220.0,241.3 L 230.0,238.6 L 240.0,236.0 L 250.0,234.1 L 260.0,233.1 L 270.0,233.1 L 280.0,234.2 L 290.0,236.2 L 300.0,238.7 L 310.0,241.4 L 320.0,244.0 L 330.0,245.9 L 340.0,246.9 L 350.0,246.9 L 360.0,245.8 L 370.0,243.8 L 380.0,241.3 L 390.0,238.6 L 400.0,236.0 L 410.0,234.1 L 420.0,233.1 L 430.0,233.1 L 440.0,234.2 L 450.0,236.2 L 460.0,238.7 L 470.0,241.4 L 480.0,244.0 L 490.0,245.9 L 500.0,246.9 L 510.0,246.9 L 520.0,245.8 L 530.0,243.8 L 540.0,241.3 L 542.0,270.7 L 532.0,273.4 L 522.0,275.4 L 512.0,276.7 L 502.0,277.0 L 492.0,276.1 L 482.0,274.4 L 472.0,272.0 L 462.0,269.3 L 452.0,266.6 L 442.0,264.6 L 432.0,263.3 L 422.0,263.0 L 412.0,263.9 L 402.0,265.6 L 392.0,268.0 L 382.0,270.7 L 372.0,273.4 L 362.0,275.4 L 352.0,276.7 L 342.0,277.0 L 332.0,276.1 L 322.0,274.4 L 312.0,272.0 L 302.0,269.3 L 292.0,266.6 L 282.0,264.6 L 272.0,263.3 L 262.0,263.0 L 252.0,263.9 L 242.0,265.6 L 232.0,268.0 L 222.0,270.7 L 212.0,273.4 L 202.0,275.4 L 192.0,276.7 L 182.0,277.0 L 172.0,276.1 L 162.0,274.4 L 152.0,272.0 L 142.0,269.3 L 132.0,266.6 L 122.0,264.6 L 112.0,263.3 L 102.0,263.0 L 92.0,263.9 L 82.0,265.6 L 72.0,268.0 L 62.0,270.7 L 52.0,273.4 L 42.0,275.4 L 32.0,276.7 L 22.0,277.0 L 12.0,276.1 L 2.0,274.4 L -8.0,272.0 L -18.0,269.3 L -28.0,266.6 Z" fill="#2e9d4f"/><path d="M -30.0,266.2 L -20.0,268.7 L -10.0,271.4 L 0.0,274.0 L 10.0,275.9 L 20.0,276.9 L 30.0,276.9 L 40.0,275.8 L 50.0,273.8 L 60.0,271.3 L 70.0,268.6 L 80.0,266.0 L 90.0,264.1 L 100.0,263.1 L 110.0,263.1 L 120.0,264.2 L 130.0,266.2 L 140.0,268.7 L 150.0,271.4 L 160.0,274.0 L 170.0,275.9 L 180.0,276.9 L 190.0,276.9 L 200.0,275.8 L 210.0,273.8 L 220.0,271.3 L 230.0,268.6 L 240.0,266.0 L 250.0,264.1 L 260.0,263.1 L 270.0,263.1 L 280.0,264.2 L 290.0,266.2 L 300.0,268.7 L 310.0,271.4 L 320.0,274.0 L 330.0,275.9 L 340.0,276.9 L 350.0,276.9 L 360.0,275.8 L 370.0,273.8 L 380.0,271.3 L 390.0,268.6 L 400.0,266.0 L 410.0,264.1 L 420.0,263.1 L 430.0,263.1 L 440.0,264.2 L 450.0,266.2 L 460.0,268.7 L 470.0,271.4 L 480.0,274.0 L 490.0,275.9 L 500.0,276.9 L 510.0,276.9 L 520.0,275.8 L 530.0,273.8 L 540.0,271.3 L 542.0,300.7 L 532.0,303.4 L 522.0,305.4 L 512.0,306.7 L 502.0,307.0 L 492.0,306.1 L 482.0,304.4 L 472.0,302.0 L 462.0,299.3 L 452.0,296.6 L 442.0,294.6 L 432.0,293.3 L 422.0,293.0 L 412.0,293.9 L 402.0,295.6 L 392.0,298.0 L 382.0,300.7 L 372.0,303.4 L 362.0,305.4 L 352.0,306.7 L 342.0,307.0 L 332.0,306.1 L 322.0,304.4 L 312.0,302.0 L 302.0,299.3 L 292.0,296.6 L 282.0,294.6 L 272.0,293.3 L 262.0,293.0 L 252.0,293.9 L 242.0,295.6 L 232.0,298.0 L 222.0,300.7 L 212.0,303.4 L 202.0,305.4 L 192.0,306.7 L 182.0,307.0 L 172.0,306.1 L 162.0,304.4 L 152.0,302.0 L 142.0,299.3 L 132.0,296.6 L 122.0,294.6 L 112.0,293.3 L 102.0,293.0 L 92.0,293.9 L 82.0,295.6 L 72.0,298.0 L 62.0,300.7 L 52.0,303.4 L 42.0,305.4 L 32.0,306.7 L 22.0,307.0 L 12.0,306.1 L 2.0,304.4 L -8.0,302.0 L -18.0,299.3 L -28.0,296.6 Z" fill="#1b2a6b"/><path d="M -30.0,296.2 L -20.0,298.7 L -10.0,301.4 L 0.0,304.0 L 10.0,305.9 L 20.0,306.9 L 30.0,306.9 L 40.0,305.8 L 50.0,303.8 L 60.0,301.3 L 70.0,298.6 L 80.0,296.0 L 90.0,294.1 L 100.0,293.1 L 110.0,293.1 L 120.0,294.2 L 130.0,296.2 L 140.0,298.7 L 150.0,301.4 L 160.0,304.0 L 170.0,305.9 L 180.0,306.9 L 190.0,306.9 L 200.0,305.8 L 210.0,303.8 L 220.0,301.3 L 230.0,298.6 L 240.0,296.0 L 250.0,294.1 L 260.0,293.1 L 270.0,293.1 L 280.0,294.2 L 290.0,296.2 L 300.0,298.7 L 310.0,301.4 L 320.0,304.0 L 330.0,305.9 L 340.0,306.9 L 350.0,306.9 L 360.0,305.8 L 370.0,303.8 L 380.0,301.3 L 390.0,298.6 L 400.0,296.0 L 410.0,294.1 L 420.0,293.1 L 430.0,293.1 L 440.0,294.2 L 450.0,296.2 L 460.0,298.7 L 470.0,301.4 L 480.0,304.0 L 490.0,305.9 L 500.0,306.9 L 510.0,306.9 L 520.0,305.8 L 530.0,303.8 L 540.0,301.3 L 542.0,330.7 L 532.0,333.4 L 522.0,335.4 L 512.0,336.7 L 502.0,337.0 L 492.0,336.1 L 482.0,334.4 L 472.0,332.0 L 462.0,329.3 L 452.0,326.6 L 442.0,324.6 L 432.0,323.3 L 422.0,323.0 L 412.0,323.9 L 402.0,325.6 L 392.0,328.0 L 382.0,330.7 L 372.0,333.4 L 362.0,335.4 L 352.0,336.7 L 342.0,337.0 L 332.0,336.1 L 322.0,334.4 L 312.0,332.0 L 302.0,329.3 L 292.0,326.6 L 282.0,324.6 L 272.0,323.3 L 262.0,323.0 L 252.0,323.9 L 242.0,325.6 L 232.0,328.0 L 222.0,330.7 L 212.0,333.4 L 202.0,335.4 L 192.0,336.7 L 182.0,337.0 L 172.0,336.1 L 162.0,334.4 L 152.0,332.0 L 142.0,329.3 L 132.0,326.6 L 122.0,324.6 L 112.0,323.3 L 102.0,323.0 L 92.0,323.9 L 82.0,325.6 L 72.0,328.0 L 62.0,330.7 L 52.0,333.4 L 42.0,335.4 L 32.0,336.7 L 22.0,337.0 L 12.0,336.1 L 2.0,334.4 L -8.0,332.0 L -18.0,329.3 L -28.0,326.6 Z" fill="#2e9d4f"/><path d="M -30.0,326.2 L -20.0,328.7 L -10.0,331.4 L 0.0,334.0 L 10.0,335.9 L 20.0,336.9 L 30.0,336.9 L 40.0,335.8 L 50.0,333.8 L 60.0,331.3 L 70.0,328.6 L 80.0,326.0 L 90.0,324.1 L 100.0,323.1 L 110.0,323.1 L 120.0,324.2 L 130.0,326.2 L 140.0,328.7 L 150.0,331.4 L 160.0,334.0 L 170.0,335.9 L 180.0,336.9 L 190.0,336.9 L 200.0,335.8 L 210.0,333.8 L 220.0,331.3 L 230.0,328.6 L 240.0,326.0 L 250.0,324.1 L 260.0,323.1 L 270.0,323.1 L 280.0,324.2 L 290.0,326.2 L 300.0,328.7 L 310.0,331.4 L 320.0,334.0 L 330.0,335.9 L 340.0,336.9 L 350.0,336.9 L 360.0,335.8 L 370.0,333.8 L 380.0,331.3 L 390.0,328.6 L 400.0,326.0 L 410.0,324.1 L 420.0,323.1 L 430.0,323.1 L 440.0,324.2 L 450.0,326.2 L 460.0,328.7 L 470.0,331.4 L 480.0,334.0 L 490.0,335.9 L 500.0,336.9 L 510.0,336.9 L 520.0,335.8 L 530.0,333.8 L 540.0,331.3 L 542.0,360.7 L 532.0,363.4 L 522.0,365.4 L 512.0,366.7 L 502.0,367.0 L 492.0,366.1 L 482.0,364.4 L 472.0,362.0 L 462.0,359.3 L 452.0,356.6 L 442.0,354.6 L 432.0,353.3 L 422.0,353.0 L 412.0,353.9 L 402.0,355.6 L 392.0,358.0 L 382.0,360.7 L 372.0,363.4 L 362.0,365.4 L 352.0,366.7 L 342.0,367.0 L 332.0,366.1 L 322.0,364.4 L 312.0,362.0 L 302.0,359.3 L 292.0,356.6 L 282.0,354.6 L 272.0,353.3 L 262.0,353.0 L 252.0,353.9 L 242.0,355.6 L 232.0,358.0 L 222.0,360.7 L 212.0,363.4 L 202.0,365.4 L 192.0,366.7 L 182.0,367.0 L 172.0,366.1 L 162.0,364.4 L 152.0,362.0 L 142.0,359.3 L 132.0,356.6 L 122.0,354.6 L 112.0,353.3 L 102.0,353.0 L 92.0,353.9 L 82.0,355.6 L 72.0,358.0 L 62.0,360.7 L 52.0,363.4 L 42.0,365.4 L 32.0,366.7 L 22.0,367.0 L 12.0,366.1 L 2.0,364.4 L -8.0,362.0 L -18.0,359.3 L -28.0,356.6 Z" fill="#1b2a6b"/><path d="M -30.0,356.2 L -20.0,358.7 L -10.0,361.4 L 0.0,364.0 L 10.0,365.9 L 20.0,366.9 L 30.0,366.9 L 40.0,365.8 L 50.0,363.8 L 60.0,361.3 L 70.0,358.6 L 80.0,356.0 L 90.0,354.1 L 100.0,353.1 L 110.0,353.1 L 120.0,354.2 L 130.0,356.2 L 140.0,358.7 L 150.0,361.4 L 160.0,364.0 L 170.0,365.9 L 180.0,366.9 L 190.0,366.9 L 200.0,365.8 L 210.0,363.8 L 220.0,361.3 L 230.0,358.6 L 240.0,356.0 L 250.0,354.1 L 260.0,353.1 L 270.0,353.1 L 280.0,354.2 L 290.0,356.2 L 300.0,358.7 L 310.0,361.4 L 320.0,364.0 L 330.0,365.9 L 340.0,366.9 L 350.0,366.9 L 360.0,365.8 L 370.0,363.8 L 380.0,361.3 L 390.0,358.6 L 400.0,356.0 L 410.0,354.1 L 420.0,353.1 L 430.0,353.1 L 440.0,354.2 L 450.0,356.2 L 460.0,358.7 L 470.0,361.4 L 480.0,364.0 L 490.0,365.9 L 500.0,366.9 L 510.0,366.9 L 520.0,365.8 L 530.0,363.8 L 540.0,361.3 L 542.0,390.7 L 532.0,393.4 L 522.0,395.4 L 512.0,396.7 L 502.0,397.0 L 492.0,396.1 L 482.0,394.4 L 472.0,392.0 L 462.0,389.3 L 452.0,386.6 L 442.0,384.6 L 432.0,383.3 L 422.0,383.0 L 412.0,383.9 L 402.0,385.6 L 392.0,388.0 L 382.0,390.7 L 372.0,393.4 L 362.0,395.4 L 352.0,396.7 L 342.0,397.0 L 332.0,396.1 L 322.0,394.4 L 312.0,392.0 L 302.0,389.3 L 292.0,386.6 L 282.0,384.6 L 272.0,383.3 L 262.0,383.0 L 252.0,383.9 L 242.0,385.6 L 232.0,388.0 L 222.0,390.7 L 212.0,393.4 L 202.0,395.4 L 192.0,396.7 L 182.0,397.0 L 172.0,396.1 L 162.0,394.4 L 152.0,392.0 L 142.0,389.3 L 132.0,386.6 L 122.0,384.6 L 112.0,383.3 L 102.0,383.0 L 92.0,383.9 L 82.0,385.6 L 72.0,388.0 L 62.0,390.7 L 52.0,393.4 L 42.0,395.4 L 32.0,396.7 L 22.0,397.0 L 12.0,396.1 L 2.0,394.4 L -8.0,392.0 L -18.0,389.3 L -28.0,386.6 Z" fill="#2e9d4f"/><path d="M -30.0,386.2 L -20.0,388.7 L -10.0,391.4 L 0.0,394.0 L 10.0,395.9 L 20.0,396.9 L 30.0,396.9 L 40.0,395.8 L 50.0,393.8 L 60.0,391.3 L 70.0,388.6 L 80.0,386.0 L 90.0,384.1 L 100.0,383.1 L 110.0,383.1 L 120.0,384.2 L 130.0,386.2 L 140.0,388.7 L 150.0,391.4 L 160.0,394.0 L 170.0,395.9 L 180.0,396.9 L 190.0,396.9 L 200.0,395.8 L 210.0,393.8 L 220.0,391.3 L 230.0,388.6 L 240.0,386.0 L 250.0,384.1 L 260.0,383.1 L 270.0,383.1 L 280.0,384.2 L 290.0,386.2 L 300.0,388.7 L 310.0,391.4 L 320.0,394.0 L 330.0,395.9 L 340.0,396.9 L 350.0,396.9 L 360.0,395.8 L 370.0,393.8 L 380.0,391.3 L 390.0,388.6 L 400.0,386.0 L 410.0,384.1 L 420.0,383.1 L 430.0,383.1 L 440.0,384.2 L 450.0,386.2 L 460.0,388.7 L 470.0,391.4 L 480.0,394.0 L 490.0,395.9 L 500.0,396.9 L 510.0,396.9 L 520.0,395.8 L 530.0,393.8 L 540.0,391.3 L 542.0,420.7 L 532.0,423.4 L 522.0,425.4 L 512.0,426.7 L 502.0,427.0 L 492.0,426.1 L 482.0,424.4 L 472.0,422.0 L 462.0,419.3 L 452.0,416.6 L 442.0,414.6 L 432.0,413.3 L 422.0,413.0 L 412.0,413.9 L 402.0,415.6 L 392.0,418.0 L 382.0,420.7 L 372.0,423.4 L 362.0,425.4 L 352.0,426.7 L 342.0,427.0 L 332.0,426.1 L 322.0,424.4 L 312.0,422.0 L 302.0,419.3 L 292.0,416.6 L 282.0,414.6 L 272.0,413.3 L 262.0,413.0 L 252.0,413.9 L 242.0,415.6 L 232.0,418.0 L 222.0,420.7 L 212.0,423.4 L 202.0,425.4 L 192.0,426.7 L 182.0,427.0 L 172.0,426.1 L 162.0,424.4 L 152.0,422.0 L 142.0,419.3 L 132.0,416.6 L 122.0,414.6 L 112.0,413.3 L 102.0,413.0 L 92.0,413.9 L 82.0,415.6 L 72.0,418.0 L 62.0,420.7 L 52.0,423.4 L 42.0,425.4 L 32.0,426.7 L 22.0,427.0 L 12.0,426.1 L 2.0,424.4 L -8.0,422.0 L -18.0,419.3 L -28.0,416.6 Z" fill="#1b2a6b"/><path d="M -30.0,416.2 L -20.0,418.7 L -10.0,421.4 L 0.0,424.0 L 10.0,425.9 L 20.0,426.9 L 30.0,426.9 L 40.0,425.8 L 50.0,423.8 L 60.0,421.3 L 70.0,418.6 L 80.0,416.0 L 90.0,414.1 L 100.0,413.1 L 110.0,413.1 L 120.0,414.2 L 130.0,416.2 L 140.0,418.7 L 150.0,421.4 L 160.0,424.0 L 170.0,425.9 L 180.0,426.9 L 190.0,426.9 L 200.0,425.8 L 210.0,423.8 L 220.0,421.3 L 230.0,418.6 L 240.0,416.0 L 250.0,414.1 L 260.0,413.1 L 270.0,413.1 L 280.0,414.2 L 290.0,416.2 L 300.0,418.7 L 310.0,421.4 L 320.0,424.0 L 330.0,425.9 L 340.0,426.9 L 350.0,426.9 L 360.0,425.8 L 370.0,423.8 L 380.0,421.3 L 390.0,418.6 L 400.0,416.0 L 410.0,414.1 L 420.0,413.1 L 430.0,413.1 L 440.0,414.2 L 450.0,416.2 L 460.0,418.7 L 470.0,421.4 L 480.0,424.0 L 490.0,425.9 L 500.0,426.9 L 510.0,426.9 L 520.0,425.8 L 530.0,423.8 L 540.0,421.3 L 542.0,450.7 L 532.0,453.4 L 522.0,455.4 L 512.0,456.7 L 502.0,457.0 L 492.0,456.1 L 482.0,454.4 L 472.0,452.0 L 462.0,449.3 L 452.0,446.6 L 442.0,444.6 L 432.0,443.3 L 422.0,443.0 L 412.0,443.9 L 402.0,445.6 L 392.0,448.0 L 382.0,450.7 L 372.0,453.4 L 362.0,455.4 L 352.0,456.7 L 342.0,457.0 L 332.0,456.1 L 322.0,454.4 L 312.0,452.0 L 302.0,449.3 L 292.0,446.6 L 282.0,444.6 L 272.0,443.3 L 262.0,443.0 L 252.0,443.9 L 242.0,445.6 L 232.0,448.0 L 222.0,450.7 L 212.0,453.4 L 202.0,455.4 L 192.0,456.7 L 182.0,457.0 L 172.0,456.1 L 162.0,454.4 L 152.0,452.0 L 142.0,449.3 L 132.0,446.6 L 122.0,444.6 L 112.0,443.3 L 102.0,443.0 L 92.0,443.9 L 82.0,445.6 L 72.0,448.0 L 62.0,450.7 L 52.0,453.4 L 42.0,455.4 L 32.0,456.7 L 22.0,457.0 L 12.0,456.1 L 2.0,454.4 L -8.0,452.0 L -18.0,449.3 L -28.0,446.6 Z" fill="#2e9d4f"/><path d="M -30.0,446.2 L -20.0,448.7 L -10.0,451.4 L 0.0,454.0 L 10.0,455.9 L 20.0,456.9 L 30.0,456.9 L 40.0,455.8 L 50.0,453.8 L 60.0,451.3 L 70.0,448.6 L 80.0,446.0 L 90.0,444.1 L 100.0,443.1 L 110.0,443.1 L 120.0,444.2 L 130.0,446.2 L 140.0,448.7 L 150.0,451.4 L 160.0,454.0 L 170.0,455.9 L 180.0,456.9 L 190.0,456.9 L 200.0,455.8 L 210.0,453.8 L 220.0,451.3 L 230.0,448.6 L 240.0,446.0 L 250.0,444.1 L 260.0,443.1 L 270.0,443.1 L 280.0,444.2 L 290.0,446.2 L 300.0,448.7 L 310.0,451.4 L 320.0,454.0 L 330.0,455.9 L 340.0,456.9 L 350.0,456.9 L 360.0,455.8 L 370.0,453.8 L 380.0,451.3 L 390.0,448.6 L 400.0,446.0 L 410.0,444.1 L 420.0,443.1 L 430.0,443.1 L 440.0,444.2 L 450.0,446.2 L 460.0,448.7 L 470.0,451.4 L 480.0,454.0 L 490.0,455.9 L 500.0,456.9 L 510.0,456.9 L 520.0,455.8 L 530.0,453.8 L 540.0,451.3 L 542.0,480.7 L 532.0,483.4 L 522.0,485.4 L 512.0,486.7 L 502.0,487.0 L 492.0,486.1 L 482.0,484.4 L 472.0,482.0 L 462.0,479.3 L 452.0,476.6 L 442.0,474.6 L 432.0,473.3 L 422.0,473.0 L 412.0,473.9 L 402.0,475.6 L 392.0,478.0 L 382.0,480.7 L 372.0,483.4 L 362.0,485.4 L 352.0,486.7 L 342.0,487.0 L 332.0,486.1 L 322.0,484.4 L 312.0,482.0 L 302.0,479.3 L 292.0,476.6 L 282.0,474.6 L 272.0,473.3 L 262.0,473.0 L 252.0,473.9 L 242.0,475.6 L 232.0,478.0 L 222.0,480.7 L 212.0,483.4 L 202.0,485.4 L 192.0,486.7 L 182.0,487.0 L 172.0,486.1 L 162.0,484.4 L 152.0,482.0 L 142.0,479.3 L 132.0,476.6 L 122.0,474.6 L 112.0,473.3 L 102.0,473.0 L 92.0,473.9 L 82.0,475.6 L 72.0,478.0 L 62.0,480.7 L 52.0,483.4 L 42.0,485.4 L 32.0,486.7 L 22.0,487.0 L 12.0,486.1 L 2.0,484.4 L -8.0,482.0 L -18.0,479.3 L -28.0,476.6 Z" fill="#1b2a6b"/>
    <path d="M 174 300 A 82 82 0 0 1 338 300 Z" fill="#e02438"/>
  </g>
</svg>